# xmcd
#
# Track frame offsets: 
#        150
#        25225
#        45006
#        70081
#
# Disc length: 1195 seconds
#
# Revision: 2
# Processed by: cddbd v1.5.2PL0 Copyright (c) Steve Scherf et al.
# Submitted via: ExactAudioCopy v1.0b3
#
DISCID=2404a904
DTITLE=いきものがかり - ラブソングはとまらないよ
DYEAR=2014
DGENRE=JPop
TTITLE0=ラブソングはとまらないよ
TTITLE1=虹
TTITLE2=ラブソングはとまらないよ-instrumental-
TTITLE3=虹-instrumental-
EXTD=
EXTT0=
EXTT1=
EXTT2=
EXTT3=
PLAYORDER=
